<svg  fill="none" xmlns="http://www.w3.org/2000/svg"><g clip-path="url(#a)"><path d="M20.49 3.51c-4.682-4.68-12.298-4.68-16.98 0-4.68 4.682-4.68 12.298 0 16.979a11.97 11.97 0 0 0 8.49 3.51 11.97 11.97 0 0 0 8.49-3.51c4.68-4.68 4.68-12.297 0-16.978ZM7.727 5.648A2.333 2.333 0 0 1 9.39 4.96c.628 0 1.219.245 1.662.689.444.443.688 1.033.688 1.66 0 .628-.244 1.218-.688 1.662a2.333 2.333 0 0 1-1.662.688 2.333 2.333 0 0 1-1.66-.688 2.333 2.333 0 0 1-.689-1.661c0-.628.244-1.218.688-1.662Zm.396 11.337a.78.78 0 0 1-1.108 0 .783.783 0 0 1 0-1.108l8.86-8.86a.783.783 0 1 1 1.108 1.107l-8.86 8.86Zm8.67.854a2.333 2.333 0 0 1-1.662.688 2.334 2.334 0 0 1-1.661-.688 2.332 2.332 0 0 1-.688-1.661c0-.628.244-1.218.688-1.662a2.333 2.333 0 0 1 1.662-.688c.627 0 1.218.245 1.661.689.444.443.688 1.033.688 1.66 0 .628-.244 1.218-.688 1.662Z" fill="#FFBC57"/></g><defs><clipPath id="a"><path fill="#fff" d="M0 0h24v24H0z"/></clipPath></defs></svg>