<svg aria-hidden="true" style="position:absolute;width:0;height:0;overflow:hidden" xmlns="http://www.w3.org/2000/svg">
<defs>
<symbol id="facebook" viewBox="0 0 32 32">
<path fill="#fff"  d="M28.8 16c0 7.069-5.731 12.8-12.8 12.8S3.2 23.069 3.2 16C3.2 8.931 8.931 3.2 16 3.2S28.8 8.931 28.8 16z"/>
<path fill="#1778d0"  d="M16 0C7.168 0 0 7.168 0 16s7.168 16 16 16 16-7.168 16-16S24.832 0 16 0zm4.352 9.728h-2.176c-.384 0-.896.512-.896.768V12.8h3.072c-.128 1.664-.384 3.328-.384 3.328H17.28v9.728h-4.096v-9.728h-1.92V12.8h1.92v-2.688c0-.512-.128-3.712 4.096-3.712h2.944v3.328h.128z"/>
</symbol>
<symbol id="telephone-footer" viewBox="0 0 32 32"><path fill="none" opacity=".2" stroke="#b1b1b1"  stroke-width="1.28" d="M31.36 16c0 8.483-6.877 15.36-15.36 15.36S.64 24.483.64 16 7.517.64 16 .64 31.36 7.517 31.36 16z"/><path fill="#b1b1b1"  d="M20.101 16.64c-.141 0-.288-.045-.429-.077a6.255 6.255 0 0 1-.838-.25 1.279 1.279 0 0 0-1.584.633l-.003.007-.141.294a8.497 8.497 0 0 1-1.711-1.282l.002.002a8.432 8.432 0 0 1-1.258-1.668l-.022-.041.294-.134a1.283 1.283 0 0 0 .637-1.596l.003.009a6.55 6.55 0 0 1-.25-.845 4.951 4.951 0 0 1-.077-.429 1.923 1.923 0 0 0-1.892-1.594h-.029.001H10.875c-.568 0-1.078.246-1.429.638l-.002.002a1.912 1.912 0 0 0-.466 1.546l-.001-.01a12.199 12.199 0 0 0 3.463 7.04 12.175 12.175 0 0 0 6.977 3.456l.063.007c.083.006.166.006.25 0h.002a1.92 1.92 0 0 0 1.747-1.123l.005-.012a1.93 1.93 0 0 0 .166-.785v-1.92a1.921 1.921 0 0 0-1.536-1.867l-.012-.002zm.314 3.84a.633.633 0 0 1-.211.473h-.001a.635.635 0 0 1-.529.16h.004a10.983 10.983 0 0 1-6.317-3.098l.001.001a10.952 10.952 0 0 1-3.117-6.279l-.006-.057a.638.638 0 0 1 .374-.68l.004-.002a.636.636 0 0 1 .258-.054h1.94a.64.64 0 0 1 .624.495l.001.004c0 .173.058.352.096.525.074.335.172.665.294.986l-.896.422a.641.641 0 0 0-.331.354l-.001.004a.634.634 0 0 0 .002.49l-.002-.004a9.34 9.34 0 0 0 4.424 4.456l.056.024a.634.634 0 0 0 .49-.002l-.004.002a.645.645 0 0 0 .357-.329l.002-.004.403-.896c.437.165.952.302 1.485.385l.045.006a.641.641 0 0 1 .499.624v.016-.001l.058 1.978zM16.639 9.6h-.448a.642.642 0 0 0 .054 1.282l.057-.002H16.3h.339a3.84 3.84 0 0 1 3.84 3.84v.339a.64.64 0 0 0 .58.691h.056a.64.64 0 0 0 .637-.58v-.451a5.12 5.12 0 0 0-5.113-5.12zm1.28 5.12a.64.64 0 0 0 1.28 0 2.56 2.56 0 0 0-2.56-2.56.64.64 0 0 0 0 1.28c.707 0 1.28.573 1.28 1.28z"/></symbol>
<symbol id="telephone" viewBox="0 0 32 32"><path fill="#f8f8f8"  d="M32 16c0 8.837-7.163 16-16 16S0 24.837 0 16 7.163 0 16 0s16 7.163 16 16z"/>
<path fill="#535353"  d="M21.179 17.085c-.163 0-.333-.051-.495-.088a7.226 7.226 0 0 1-1.018-.305l.05.017a1.477 1.477 0 0 0-1.828.73l-.004.009-.163.339a9.761 9.761 0 0 1-1.975-1.48l.002.002a9.755 9.755 0 0 1-1.452-1.925l-.025-.047.34-.155a1.48 1.48 0 0 0 .736-1.842l.003.01a7.28 7.28 0 0 1-.278-.923l-.01-.052a5.342 5.342 0 0 1-.085-.464l-.003-.03a2.22 2.22 0 0 0-2.184-1.84h-.034.002-2.226c-.655 0-1.244.284-1.649.736l-.002.002a2.202 2.202 0 0 0-.538 1.784l-.001-.012a14.098 14.098 0 0 0 3.996 8.126 14.038 14.038 0 0 0 8.053 3.988l.072.008c.096.008.192.008.288 0h.004c.567 0 1.084-.213 1.476-.563l-.002.002c.454-.408.739-.996.739-1.652V19.241a2.217 2.217 0 0 0-1.773-2.154l-.014-.002zm.361 4.432a.734.734 0 0 1-.243.546l-.001.001a.735.735 0 0 1-.61.185h.004a12.677 12.677 0 0 1-7.292-3.576l.001.001a12.641 12.641 0 0 1-3.597-7.248l-.007-.065a.738.738 0 0 1 .431-.785l.005-.002a.734.734 0 0 1 .303-.062H12.769a.74.74 0 0 1 .72.571l.001.005c0 .2.067.406.111.605.085.387.198.768.339 1.138l-1.034.488a.735.735 0 0 0-.384.413.734.734 0 0 0 .002.567l-.002-.005a10.775 10.775 0 0 0 5.106 5.143l.065.028c.18.074.381.074.561 0a.732.732 0 0 0 .413-.384l.466-1.034a8.734 8.734 0 0 0 1.714.444l.052.007a.74.74 0 0 1 .576.72v.02-.001l.067 2.282zM17.182 8.96h-.516a.743.743 0 0 0 .091 1.478l.036-.001h-.002.392a4.432 4.432 0 0 1 4.432 4.432v.392a.739.739 0 0 0 .669.798h.066c.384 0 .7-.294.735-.669v-.521a5.91 5.91 0 0 0-5.902-5.909zm1.478 5.909a.74.74 0 0 0 1.478 0 2.955 2.955 0 0 0-2.954-2.954.74.74 0 0 0 0 1.478c.816 0 1.477.661 1.477 1.477z"/></symbol>
<symbol id="telegram-footer" viewBox="0 0 32 32"><path fill="#40b3e0"  d="M16 0C7.163 0 0 7.163 0 16s7.163 16 16 16 16-7.163 16-16S24.837 0 16 0z"/><path fill="#fff"  d="m23.786 9.204-2.858 14.408s-.4 1-1.499.52l-6.594-5.056-2.398-1.16-4.036-1.358s-.619-.22-.68-.699c-.059-.48.7-.739.7-.739l16.047-6.296s1.319-.578 1.319.381z"/><path fill="#d2e5f1"  d="M12.328 23.45s-.194-.018-.433-.778c-.24-.759-1.459-4.756-1.459-4.756l9.692-6.155s.56-.339.54 0c0 0 .1.06-.2.34s-7.614 6.854-7.614 6.854z"/><path fill="#b5cfe4"  d="m15.362 21.014-2.608 2.378s-.204.154-.427.058l.499-4.418z"/></symbol>
<symbol id="telegram" viewBox="0 0 32 32"><path fill="#40b3e0"  d="M16 0C7.164 0 0 7.164 0 16s7.164 16 16 16 16-7.164 16-16S24.836 0 16 0z"/><path fill="#fff"  d="m23.786 9.204-2.859 14.409s-.399.998-1.498.519l-6.595-5.056-2.398-1.159-4.037-1.359s-.619-.22-.679-.7c-.06-.48.7-.739.7-.739l16.047-6.294s1.319-.58 1.319.38z"/><path fill="#d2e5f1"  d="M12.327 23.451s-.192-.018-.432-.779c-.24-.758-1.459-4.755-1.459-4.755l9.692-6.155s.56-.34.54 0c0 0 .1.06-.199.339s-7.614 6.854-7.614 6.854z"/><path fill="#b5cfe4"  d="m15.362 21.014-2.608 2.379s-.204.155-.427.058l.499-4.418z"/>
</symbol>
<symbol id="arrow-down" viewBox="0 0 32 32"><path fill="#535353"  d="M16.947 19.773 22.6 14.12a1.333 1.333 0 0 0-.94-2.281 1.33 1.33 0 0 0-.94.387L16 16.946l-4.72-4.72c-.241-.24-.573-.388-.94-.388s-.699.148-.94.388a1.33 1.33 0 0 0-.387.939v.016c0 .366.148.698.387.939l5.653 5.653a1.333 1.333 0 0 0 1.894 0z"/>
</symbol>
<symbol id="search" viewBox="0 0 32 32"><path fill="#535353"  d="m30.236 29.415-5.685-5.644a13.726 13.726 0 0 0 3.033-8.635c0-4.076-1.766-7.74-4.575-10.268l-.012-.011a13.723 13.723 0 0 0-9.204-3.522 13.742 13.742 0 0 0-9.752 4.041 13.766 13.766 0 0 0-4.037 9.756c0 7.221 5.543 13.148 12.606 13.756l.052.004c.338.03.732.046 1.13.046 3.279 0 6.29-1.145 8.656-3.056l-.026.02 5.639 5.644c.278.28.663.453 1.088.453s.81-.173 1.088-.453a1.528 1.528 0 0 0-.001-2.132zm-16.413-3.512h-.002a10.722 10.722 0 0 1-9.881-6.556l-.026-.07a10.559 10.559 0 0 1-.816-4.106c0-2.965 1.201-5.649 3.143-7.592a10.689 10.689 0 0 1 7.588-3.146c5.923 0 10.724 4.801 10.724 10.724v.013-.001.001c0 2.963-1.2 5.647-3.141 7.59a10.692 10.692 0 0 1-7.585 3.144h-.001z"/>
</symbol>
<symbol id="obrane-header" viewBox="0 0 32 32"><path fill="none" stroke="#ffbc57"  stroke-width="1.28" d="M31.36 16c0 8.483-6.877 15.36-15.36 15.36S.64 24.483.64 16 7.517.64 16 .64 31.36 7.517 31.36 16z"/><path fill="#535353"  d="M22.76 10.519a5.206 5.206 0 0 0-3.696-1.534 5.2 5.2 0 0 0-3.09 1.012l.014-.01a5.203 5.203 0 0 0-6.773 7.868h.001l5.154 5.162a2.303 2.303 0 0 0 3.237 0l5.153-5.162c.935-.94 1.513-2.237 1.513-3.668s-.578-2.728-1.513-3.668zm-1.17 6.191-5.153 5.153a.63.63 0 0 1-.896 0l-5.154-5.178c-.628-.641-1.015-1.52-1.015-2.49s.387-1.848 1.016-2.49l-.001.001c.64-.632 1.519-1.022 2.49-1.022s1.85.39 2.49 1.022a.826.826 0 0 0 1.178 0c.64-.632 1.519-1.022 2.49-1.022s1.85.39 2.49 1.022a3.549 3.549 0 0 1 1.049 2.524c0 .953-.374 1.818-.984 2.457l.001-.001v.025z"/>
</symbol>
<symbol id="obrane-sire" viewBox="0 0 32 32"><path fill="#f8f8f8"  d="M32 16c0 8.837-7.163 16-16 16S0 24.837 0 16 7.163 0 16 0s16 7.163 16 16z"/><path fill="#b1b1b1"  d="M22.76 10.519a5.206 5.206 0 0 0-3.696-1.534 5.2 5.2 0 0 0-3.09 1.012l.014-.01a5.203 5.203 0 0 0-6.773 7.868h.001l5.154 5.162a2.303 2.303 0 0 0 3.237 0l5.153-5.162c.935-.94 1.513-2.237 1.513-3.668s-.578-2.728-1.513-3.668zm-1.17 6.191-5.153 5.153a.63.63 0 0 1-.896 0l-5.154-5.178c-.628-.641-1.015-1.52-1.015-2.49s.387-1.848 1.016-2.49l-.001.001c.64-.632 1.519-1.022 2.49-1.022s1.85.39 2.49 1.022a.826.826 0 0 0 1.178 0c.64-.632 1.519-1.022 2.49-1.022s1.85.39 2.49 1.022a3.549 3.549 0 0 1 1.049 2.524c0 .953-.374 1.818-.984 2.457l.001-.001v.025z"/>
</symbol>
<symbol id="mastercard" viewBox="0 0 95 32"><path fill="#b1b1b1"  d="M34.573 26.048c0 .349 0 .698-.113 1.045-.228.466-.569.931-1.024 1.047a3.671 3.671 0 0 1-1.589 0l-.683-.349c-.227-.233-.341-.465-.454-.698-.114-.349-.114-.698-.114-1.046v-4.651h-1.817v4.767c0 .581.113 1.163.341 1.744.226.465.453.814.795 1.163s.796.581 1.25.698a5.913 5.913 0 0 0 2.881-.009l-.041.009a2.695 2.695 0 0 0 1.25-.698c.341-.349.683-.698.796-1.163a4.765 4.765 0 0 0 .341-1.744v-4.768h-1.819v4.651zm8.295-4.884c-.454 0-.909.117-1.364.233-.454.233-.795.465-1.022.93v-.93h-1.819v8.256h1.819v-4.534c0-.349 0-.582.113-.931l.341-.698c.227-.233.341-.349.567-.465.228-.116.569-.116.796-.116s.454 0 .683.117c.227 0 .454.115.682.231l.454-1.744c-.227-.116-.454-.116-.683-.233-.113-.116-.34-.116-.567-.116zm3.751 3.605c0-.234.113-.582.227-.815.113-.233.227-.465.454-.698s.454-.349.682-.465c.227-.116.569-.116.796-.116.567 0 1.023.117 1.363.581.341.465.569.93.683 1.513h-4.205zm4.999-2.443a5.093 5.093 0 0 0-1.223-.917l-.027-.013c-.454-.233-1.023-.349-1.59-.349-.569 0-1.137.117-1.591.349-.454.233-.909.465-1.25.93-.341.349-.682.814-.795 1.395a4.664 4.664 0 0 0-.341 1.744v.001c0 .581.114 1.163.341 1.744a3.462 3.462 0 0 0 2.135 2.202l.024.007a4.398 4.398 0 0 0 1.703.349h.001c.567 0 1.25-.116 1.818-.233.569-.233 1.137-.465 1.591-.93l-.909-1.28a9.874 9.874 0 0 1-1.137.699c-.341.116-.796.233-1.25.233-.227 0-.567 0-.795-.117l-.683-.348c-.227-.233-.454-.465-.567-.698-.114-.349-.227-.581-.341-.93h6.137v-.698a4.77 4.77 0 0 0-.341-1.745c-.227-.465-.567-.93-.909-1.395zm-43.409 1.28a4.096 4.096 0 0 0-1.221-.575l-.029-.007-1.363-.349-.796-.116c-.341 0-.683-.116-1.023-.233-.227-.116-.567-.116-.796-.349a.906.906 0 0 1-.452-.459l-.002-.006c-.113-.233-.227-.465-.227-.698s.114-.581.227-.698c.13-.248.324-.446.561-.578l.007-.004c.227-.116.569-.349.796-.349.341-.116.682-.116 1.136-.116.569 0 1.136.116 1.705.233.569.233 1.136.465 1.591.814l.909-1.511a9.725 9.725 0 0 0-1.862-.908l-.069-.022a8.298 8.298 0 0 0-2.385-.349h-.001c-.569 0-1.25.116-1.819.233s-1.023.349-1.477.698c-.454.349-.796.698-1.023 1.163s-.341 1.046-.341 1.628c0 .465.114 1.046.341 1.395.114.465.341.814.683 1.046s.682.465 1.136.582c.454.233.909.348 1.363.348l.909.117c.683.115 1.364.233 2.046.581.454.233.683.581.683 1.045 0 .234-.114.582-.228.815a1.382 1.382 0 0 1-.567.581c-.228.116-.569.233-.91.349s-.682.116-1.136.116c-.341 0-.683 0-1.023-.117-.683-.115-1.363-.348-1.931-.697-.228-.117-.57-.349-.683-.581l-1.137 1.627 1.024.698c.34.233.795.349 1.136.465l1.363.349c.454.116.796.116 1.25.116.569 0 1.25-.116 1.818-.233.569-.117 1.024-.349 1.477-.698.454-.349.796-.698 1.024-1.163.226-.465.34-1.046.34-1.628 0-.465-.114-.93-.341-1.395-.113-.582-.341-.815-.682-1.163zm4.318 1.163c0-.234.114-.582.227-.815.114-.233.227-.465.455-.698.227-.233.454-.349.682-.465s.569-.116.795-.116c.569 0 1.024.233 1.364.581.341.465.567.93.683 1.513h-4.206zm5-2.443a5.093 5.093 0 0 0-1.223-.917l-.027-.013c-.454-.233-1.023-.349-1.591-.349-.567 0-1.136.117-1.59.349-.454.233-.909.465-1.25.93-.341.349-.683.814-.796 1.395a4.664 4.664 0 0 0-.341 1.744v.001c0 .581.114 1.163.341 1.744a3.464 3.464 0 0 0 2.136 2.202l.024.007a4.398 4.398 0 0 0 1.703.349h.001c.567 0 1.249-.116 1.818-.233.569-.233 1.136-.465 1.59-.93l-.909-1.28a9.855 9.855 0 0 1-1.136.699c-.341.116-.796.233-1.25.233-.227 0-.567 0-.796-.117l-.682-.348c-.227-.233-.454-.465-.567-.698-.114-.349-.228-.581-.341-.93h6.022v-.698a4.75 4.75 0 0 0-.341-1.745c-.226-.465-.454-.93-.795-1.395zm7.727 5.582c-.683.349-1.363.349-2.045.116-.341-.117-.569-.349-.796-.581s-.341-.581-.454-.814c-.108-.33-.171-.71-.171-1.105s.062-.775.178-1.131l-.007.026c.113-.348.341-.581.454-.814.227-.233.454-.465.796-.581s.567-.233.909-.233c.341 0 .682.117 1.023.233.341.117.682.349.909.698l1.136-1.279c-.341-.465-.796-.814-1.25-.93a4.398 4.398 0 0 0-1.703-.349h-.001c-.567 0-1.249.117-1.818.349-1.024.465-1.819 1.28-2.159 2.325-.216.516-.341 1.115-.341 1.744s.125 1.228.352 1.775l-.011-.031c.341 1.047 1.249 1.861 2.272 2.326a4.537 4.537 0 0 0 1.761.349h.061-.003a4.466 4.466 0 0 0 1.734-.36l-.029.011a3.13 3.13 0 0 0 1.357-1.038l.006-.008-1.136-1.28c-.454.234-.683.466-1.023.582zm57.841-1.395c-.113.349-.341.581-.454.814-.227.233-.454.465-.796.581-.305.111-.656.174-1.023.174s-.718-.064-1.044-.181l.022.007c-.567-.233-1.022-.814-1.249-1.395-.108-.312-.171-.672-.171-1.047s.062-.735.178-1.07l-.007.023c.227-.581.682-1.163 1.249-1.395.341-.116.683-.233 1.024-.233.34 0 .681.117 1.022.233.341.117.569.349.796.581s.341.581.454.815c.227.698.227 1.511 0 2.093zm.115-4.187a2.831 2.831 0 0 0-2.626-1.161l.013-.001c-1.706 0-3.183 1.046-3.75 2.558-.216.516-.341 1.115-.341 1.744s.125 1.228.352 1.775l-.011-.031c.227.466.454 1.047.909 1.396.796.814 1.818 1.279 2.841 1.279.569 0 1.023-.116 1.477-.349s.796-.465 1.023-.93v1.046h1.932V17.21h-1.817v5.116zm5.453 2.443c0-.234.114-.582.227-.815.114-.233.227-.465.454-.698s.455-.349.683-.465c.227-.116.567-.116.795-.116.569 0 1.024.117 1.364.465.341.465.567.931.682 1.513h-4.205v.116zm5.001-2.443a5.093 5.093 0 0 0-1.223-.917l-.027-.013c-.454-.233-1.024-.349-1.591-.349s-1.023.117-1.59.349c-.454.233-.91.465-1.25.93-.341.349-.683.814-.796 1.395a4.664 4.664 0 0 0-.341 1.744v.001c0 .581.114 1.163.341 1.744.227.465.454.93.91 1.395a5.04 5.04 0 0 0 1.249.93 4.398 4.398 0 0 0 1.703.349h.001c.569 0 1.25-.116 1.819-.233.569-.233 1.136-.465 1.591-.93l-.91-1.28a9.942 9.942 0 0 1-1.136.699c-.341.116-.796.233-1.25.233-.227 0-.569 0-.796-.117l-.683-.348c-.226-.233-.453-.465-.567-.698-.113-.349-.227-.581-.341-.93H94.8v-.699c0-.58-.114-1.163-.341-1.744-.113-.698-.454-1.163-.795-1.511zM73.21 26.513c-.227.581-.796 1.163-1.364 1.395-.305.111-.656.174-1.023.174s-.718-.064-1.044-.181l.022.007c-.567-.233-1.136-.698-1.363-1.395-.108-.33-.171-.71-.171-1.105s.062-.775.178-1.131l-.007.026c.114-.349.341-.58.569-.814.227-.233.454-.465.796-.581.34-.116.682-.233 1.022-.233.341 0 .683.117 1.024.233.34.117.567.349.795.581s.454.582.569.815c.341.814.341 1.511 0 2.208zm.794-4.187c-.454-.349-.909-.698-1.363-.93a4.398 4.398 0 0 0-1.703-.349h-.001a5.025 5.025 0 0 0-1.853.361l.034-.012c-.567.233-1.023.465-1.363.93a4.171 4.171 0 0 0-.909 1.395c-.216.516-.341 1.115-.341 1.744s.125 1.228.352 1.775l-.011-.031c.227.466.567.931.909 1.396.454.349.909.698 1.363.93.521.221 1.126.349 1.762.349s1.241-.128 1.792-.36l-.03.011c.569-.233 1.023-.465 1.363-.93.341-.349.683-.814.91-1.395.216-.516.341-1.115.341-1.744s-.125-1.228-.352-1.775l.011.031c-.228-.466-.455-.931-.91-1.396zM57.3 20.35a4.071 4.071 0 0 1 1.363-.93 4.398 4.398 0 0 1 1.703-.349h.001c.683 0 1.364.116 1.932.465.569.349 1.023.698 1.364 1.28l1.59-1.047c-.227-.349-.569-.698-.909-1.046a4.081 4.081 0 0 0-1.112-.803l-.024-.011c-.455-.233-.91-.349-1.364-.465-.454-.117-1.023-.117-1.59-.117-.91 0-1.705.117-2.5.466-1.477.581-2.727 1.744-3.296 3.372-.27.745-.426 1.604-.426 2.5s.156 1.756.443 2.553l-.017-.053c.569 1.511 1.819 2.674 3.296 3.371a7.63 7.63 0 0 0 2.647.465c.47 0 .93-.042 1.378-.122l-.047.007c.454-.116.909-.233 1.363-.465a4.116 4.116 0 0 0 1.135-.813l.001-.001c.341-.349.683-.698.909-1.046l-1.589-1.163a3.968 3.968 0 0 1-3.285 1.744h-.012.001a4.466 4.466 0 0 1-1.734-.36l.029.011c-.454-.233-.91-.465-1.364-.93-.341-.349-.682-.93-.909-1.395-.216-.534-.341-1.154-.341-1.803s.125-1.268.353-1.836l-.012.033c.341-.581.683-1.045 1.023-1.511zM50.368 4.999a5.093 5.093 0 0 0-1.223-.917l-.027-.013c-.455-.233-1.024-.349-1.591-.349a4.466 4.466 0 0 0-1.734.36l.029-.011c-.532.225-.986.54-1.362.929l-.001.001c-.341.465-.683.93-.909 1.396a4.839 4.839 0 0 0-.342 1.802v.062-.003c0 .581.113 1.279.341 1.86.227.581.454 1.046.909 1.395.341.349.909.698 1.363.93.52.221 1.126.349 1.761.349h.061-.003c.567 0 1.25-.116 1.818-.233.569-.233 1.137-.465 1.591-.93l-.909-1.28c-.171.117-.37.234-.569.35s-.398.233-.569.349c-.454.117-.909.233-1.25.233s-.567 0-.909-.116l-.208-.156c-.407-.301-.848-.628-1.042-1.123-.227-.233-.341-.581-.341-.93h6.251v-.698c0-.581-.114-1.28-.341-1.86-.113-.466-.341-1.047-.795-1.396zm-5.114 2.559c0-.349.113-.581.227-.814.113-.233.227-.466.454-.699.227-.231.454-.349.682-.465s.569-.116.909-.116c.569 0 1.023.233 1.477.581.341.466.683.931.683 1.513h-4.432zM40.821 10.814c-.226.117-.567.117-.909.117-.226 0-.341 0-.567-.117-.057-.058-.142-.087-.227-.116a.562.562 0 0 1-.228-.117l.001.001c-.058-.058-.114-.145-.171-.233a1.572 1.572 0 0 0-.172-.234l.001.002c-.113-.233-.113-.465-.113-.698V5.698h3.409V3.953h-3.296V1.395H36.73v2.558h-1.705v1.745h1.705v3.721c-.113.93.228 1.86.796 2.558.569.581 1.364.814 2.272.814.455 0 1.024-.116 1.478-.233s.796-.349 1.136-.581l-.795-1.511c-.228.116-.455.233-.796.349zm21.592-4.536c.227-.233.454-.464.796-.581.341-.116.683-.233 1.023-.233.341 0 .795.117 1.136.233.341.117.683.349.909.699l1.137-1.28a3.13 3.13 0 0 0-1.343-1.038l-.021-.007a4.545 4.545 0 0 0-1.764-.35h-.057.003a5.06 5.06 0 0 0-1.819.349c-1.023.465-1.931 1.28-2.272 2.325-.216.534-.341 1.154-.341 1.803s.125 1.268.353 1.836l-.012-.033c.454 1.046 1.25 1.977 2.272 2.325a4.961 4.961 0 0 0 1.817.349h.001a5.02 5.02 0 0 0 1.852-.361l-.034.012a3.128 3.128 0 0 0 1.358-1.037l.006-.008-1.137-1.28c-.227.233-.567.465-.909.698-.341.116-.796.233-1.136.233-.341 0-.683-.116-1.023-.233-.341-.117-.569-.349-.796-.581a3.558 3.558 0 0 1-.558-.794l-.009-.02c-.108-.33-.17-.71-.17-1.105s.062-.774.178-1.13l-.007.026c.061-.094.113-.179.162-.258.12-.211.254-.394.407-.559l-.002.002zM11.05 0 7.413 8.954 3.892 0H.823v12.558h2.045V2.325l3.637 8.954h2.159l3.636-9.07v10.349h2.045V0h-3.296zM22.754 4.999c-.341-.349-.683-.698-1.136-.93-.455-.233-1.024-.349-1.591-.349-1.705 0-3.296 1.046-3.863 2.675-.216.534-.341 1.154-.341 1.802s.125 1.268.353 1.835l-.012-.033c.227.581.454 1.046.909 1.395.796.814 1.932 1.28 2.955 1.28.569 0 1.023-.117 1.591-.35.454-.233.795-.581 1.136-.93v1.046h1.818V3.951h-1.818v1.046zm0 4.303c-.227.698-.796 1.163-1.364 1.511a3.448 3.448 0 0 1-2.183-.007l.024.007c-.341-.116-.567-.349-.795-.581s-.341-.581-.455-.93a3.298 3.298 0 0 1 .007-2.116l-.007.023c.227-.698.683-1.163 1.25-1.513.341-.116.683-.233 1.024-.233 1.022 0 2.045.581 2.385 1.629.341.814.341 1.511.114 2.208zM33.323 8.256c-.683-.465-1.364-.698-2.16-.814-.078-.011-.183-.018-.307-.029-.729-.059-2.079-.17-2.079-.901 0-1.612 3.424-.915 4.205-.116l.909-1.744c-1.931-1.483-7.045-1.519-7.045 1.86 0 .698.227 1.28.683 1.628.567.465 1.363.814 2.159.814l.909.117c.341 0 .795.115 1.136.348a.643.643 0 0 1 .341.581c0 .349-.227.581-.454.815-1.12.573-3.283.245-4.205-.699l-.796 1.513c.101.069.193.139.281.205.206.156.389.294.629.377.567.233 1.249.465 1.931.465h.796c.569 0 1.137-.117 1.591-.233.337-.086.611-.237.916-.403.107-.059.215-.118.333-.178a2.68 2.68 0 0 0 .796-.815c.227-.349.227-.698.227-1.163 0-.581-.341-1.279-.795-1.628zm22.159-3.373v-.93h-1.819v8.605h1.819V7.79c0-.348 0-.698.113-.929.656-1.342 2.051-1.568 3.296-.931l.454-1.86c-1.173-.601-3.214-.516-3.863.814zM75.367 4.999c-.341-.349-.682-.698-1.136-.93s-1.023-.349-1.591-.349c-1.705 0-3.296 1.046-3.863 2.675-.216.534-.341 1.154-.341 1.802s.125 1.268.353 1.835l-.012-.033c.227.581.569 1.046.91 1.395.795.814 1.931 1.28 2.955 1.28.567 0 1.022-.117 1.589-.35.455-.233.797-.581 1.137-.93v1.046h1.819V3.951h-1.819v1.046zm0 4.303c-.227.698-.682 1.163-1.363 1.395a3.417 3.417 0 0 1-2.184-.007l.024.007c-.34-.117-.567-.349-.795-.581s-.341-.581-.454-.93a3.298 3.298 0 0 1 .006-2.116l-.007.023c.227-.698.682-1.163 1.249-1.513.341-.116.683-.233 1.024-.233 1.022 0 2.045.581 2.386 1.629.341.93.341 1.628.113 2.325zM83.663 3.691c-.455 0-1.024.117-1.477.234-.454.233-.796.465-1.024.93v-.929h-1.818v8.605h1.819V7.763c0-.349 0-.698.113-.93.114-.233.227-.465.455-.698.227-.233.454-.349.682-.465s.567-.116.795-.116c.228 0 .455 0 .683.117.227 0 .454.115.682.231l.454-1.86c-.113-.059-.227-.087-.341-.116a1.656 1.656 0 0 1-.341-.116c-.226-.117-.453-.117-.681-.117zM90.254 3.953a2.828 2.828 0 0 1 2.608 1.155l.006.008V0h1.818v12.442h-1.931v-1.045c-.228.464-.569.697-1.024.929-.414.22-.905.349-1.426.349h-.052.003c-1.024 0-2.046-.465-2.842-1.279-.39-.3-.613-.771-.813-1.195L86.505 10c-.216-.516-.341-1.115-.341-1.744s.125-1.228.352-1.775l-.011.031c.569-1.513 2.046-2.559 3.75-2.559zm2.208 5.898c.116-.158.215-.339.286-.533l.005-.015c.227-.581.227-1.395 0-2.093a2.886 2.886 0 0 1-.069-.149l-.013-.033c-.091-.21-.198-.455-.372-.633-.227-.233-.454-.465-.796-.581-.34-.117-.682-.233-1.022-.233-.341 0-.683.116-1.024.233-.567.233-1.022.814-1.249 1.395a3.298 3.298 0 0 0 .007 2.116l-.007-.023c.227.581.683 1.163 1.25 1.395a3.079 3.079 0 0 0 2.045 0c.341-.116.569-.349.796-.581.055-.103.109-.191.168-.274l-.005.007z"/>
</symbol>
<symbol id="korzina-heder" viewBox="0 0 32 32"><path fill="none" stroke="#ffbc57"  stroke-width="1.28" d="M31.36 16c0 8.483-6.877 15.36-15.36 15.36S.64 24.483.64 16 7.517.64 16 .64 31.36 7.517 31.36 16z"/><path fill="#535353"  d="M17.918 21.13c.213 0 .417-.084.568-.234s.235-.352.235-.563v-1.595a.802.802 0 0 0-.803-.798.802.802 0 0 0-.568.234.796.796 0 0 0-.236.563v1.595c0 .211.085.415.236.564s.355.234.568.234zm-3.211 0c.213 0 .417-.084.568-.234s.235-.352.235-.563v-1.595a.802.802 0 0 0-.803-.798.802.802 0 0 0-.568.234.796.796 0 0 0-.236.563v1.595c0 .211.085.415.236.564s.355.234.568.234zm7.225-9.568h-1.107l-1.389-2.751a.8.8 0 0 0-.457-.44l-.006-.002a.808.808 0 0 0-.896.238l-.001.001a.79.79 0 0 0-.068.923l-.002-.004 1.02 2.033h-5.427l1.02-2.033a.792.792 0 0 0-.374-1.015l-.005-.002a.81.81 0 0 0-1.049.297l-.002.003-1.389 2.751h-1.108a2.408 2.408 0 0 0-1.545.588l.003-.003a2.377 2.377 0 0 0-.477 3.053l-.006-.01c.295.479.741.841 1.27 1.023l.017.005.594 5.948c.064.615.354 1.152.783 1.537l.002.002a2.408 2.408 0 0 0 1.624.614H19.697a2.41 2.41 0 0 0 1.613-.616l-.002.002c.431-.386.721-.924.784-1.528l.001-.01.595-5.949a2.42 2.42 0 0 0 1.282-1.021l.006-.01c.217-.352.345-.778.345-1.235a2.37 2.37 0 0 0-.836-1.81l-.003-.003a2.407 2.407 0 0 0-1.548-.578h-.001zM20.48 22.006a.799.799 0 0 1-.262.513l-.001.001a.803.803 0 0 1-.537.205H12.943a.803.803 0 0 1-.538-.206l.001.001a.793.793 0 0 1-.261-.509v-.003l-.57-5.661h9.473l-.569 5.662zm1.453-7.255h-11.24a.804.804 0 0 1-.568-.234.792.792 0 0 1 0-1.128.805.805 0 0 1 .568-.234h11.24a.803.803 0 0 1 .802.798c0 .221-.09.42-.235.564a.808.808 0 0 1-.567.234z"/></symbol>
<symbol id="calendar-footer" viewBox="0 0 32 32"><path fill="none" opacity=".2" stroke="#b1b1b1"  stroke-width="1.28" d="M31.36 16c0 8.483-6.877 15.36-15.36 15.36S.64 24.483.64 16 7.517.64 16 .64 31.36 7.517 31.36 16z"/><path fill="#b1b1b1"  d="M20.928 10.368H19.52v-.704a.704.704 0 1 0-1.408 0v.704h-4.224v-.704a.704.704 0 1 0-1.408 0v.704h-1.408A2.113 2.113 0 0 0 8.96 12.48v8.448c0 1.166.946 2.112 2.112 2.112h9.856a2.113 2.113 0 0 0 2.112-2.112V12.48a2.113 2.113 0 0 0-2.112-2.112zm.704 10.56a.704.704 0 0 1-.704.704h-9.856a.704.704 0 0 1-.704-.704V16h11.264v4.928zm0-6.336H10.368V12.48c0-.389.315-.704.704-.704h1.408v.704a.704.704 0 1 0 1.408 0v-.704h4.224v.704a.704.704 0 1 0 1.408 0v-.704h1.408c.389 0 .704.315.704.704v2.112z"/></symbol>
<symbol id="instagram" viewBox="0 0 32 32"><path fill="#fff"  d="M29.6 16c0 7.511-6.089 13.6-13.6 13.6S2.4 23.511 2.4 16C2.4 8.489 8.489 2.4 16 2.4S29.6 8.489 29.6 16z"/><path fill="#af24d1"  d="M22.144 9.088c.256.256.384.64.384 1.024s-.128.768-.384 1.024c-.256.128-.64.384-.896.384-.384 0-.768-.128-1.024-.384s-.384-.64-.384-1.024.128-.768.384-1.024.64-.384 1.024-.384c.256 0 .64.128.896.384zM16 11.008c-2.816 0-4.992 2.304-4.992 4.992s2.304 4.992 4.992 4.992c2.816 0 4.992-2.304 4.992-4.992S18.816 11.008 16 11.008zM32 16c0 8.832-7.168 16-16 16S0 24.832 0 16 7.168 0 16 0s16 7.168 16 16zm-6.528-2.944c0-1.792-.64-3.328-1.92-4.608s-2.816-1.92-4.608-1.92h-6.016c-1.792 0-3.328.64-4.608 1.92S6.4 11.264 6.4 13.056v6.016c0 1.792.64 3.328 1.92 4.608s2.816 1.92 4.608 1.92h6.016c1.792 0 3.328-.64 4.608-1.92s1.92-2.816 1.92-4.608v-6.016z"/></symbol>
<symbol id="stars" viewBox="0 0 160 32"><path fill="#f90"  d="M29.333 13.467c.133-.667-.4-1.467-1.067-1.467l-7.6-1.067L17.199 4a1.039 1.039 0 0 0-.533-.533c-.667-.4-1.467-.133-1.867.533l-3.333 6.933L3.866 12c-.4 0-.667.133-.8.4a1.29 1.29 0 0 0 0 1.867L8.533 19.6 7.2 27.2c0 .267 0 .533.133.8.4.667 1.2.933 1.867.533l6.8-3.6 6.8 3.6c.133.133.4.133.667.133h.267c.667-.133 1.2-.8 1.067-1.6l-1.333-7.6 5.467-5.333c.267-.133.4-.4.4-.667zm32 0c.133-.667-.4-1.467-1.067-1.467l-7.6-1.067L49.199 4a1.039 1.039 0 0 0-.533-.533c-.667-.4-1.467-.133-1.867.533l-3.333 6.933-7.6 1.067c-.4 0-.667.133-.8.4a1.29 1.29 0 0 0 0 1.867l5.467 5.333-1.333 7.6c0 .267 0 .533.133.8.4.667 1.2.933 1.867.533l6.8-3.6 6.8 3.6c.133.133.4.133.667.133h.267c.667-.133 1.2-.8 1.067-1.6l-1.333-7.6 5.467-5.333c.267-.133.4-.4.4-.667zm32 0c.133-.667-.4-1.467-1.067-1.467l-7.6-1.067L81.199 4a1.039 1.039 0 0 0-.533-.533c-.667-.4-1.467-.133-1.867.533l-3.333 6.933-7.6 1.067c-.4 0-.667.133-.8.4a1.29 1.29 0 0 0 0 1.867l5.467 5.333-1.333 7.6c0 .267 0 .533.133.8.4.667 1.2.933 1.867.533l6.8-3.6 6.8 3.6c.133.133.4.133.667.133h.267c.667-.133 1.2-.8 1.067-1.6l-1.333-7.6 5.467-5.333c.267-.133.4-.4.4-.667zm32 0c.133-.667-.4-1.467-1.067-1.467l-7.6-1.067L113.199 4a1.039 1.039 0 0 0-.533-.533c-.667-.4-1.467-.133-1.867.533l-3.333 6.933-7.6 1.067c-.4 0-.667.133-.8.4a1.29 1.29 0 0 0 0 1.867l5.467 5.333-1.333 7.6c0 .267 0 .533.133.8.4.667 1.2.933 1.867.533l6.8-3.6 6.8 3.6c.133.133.4.133.667.133h.267c.667-.133 1.2-.8 1.067-1.6l-1.333-7.6 5.467-5.333c.267-.133.4-.4.4-.667zm32 0c.133-.667-.4-1.467-1.067-1.467l-7.6-1.067L145.199 4a1.039 1.039 0 0 0-.533-.533c-.667-.4-1.467-.133-1.867.533l-3.333 6.933-7.6 1.067c-.4 0-.667.133-.8.4a1.29 1.29 0 0 0 0 1.867l5.467 5.333-1.333 7.6c0 .267 0 .533.133.8.4.667 1.2.933 1.867.533l6.8-3.6 6.8 3.6c.133.133.4.133.667.133h.267c.667-.133 1.2-.8 1.067-1.6l-1.333-7.6 5.467-5.333c.267-.133.4-.4.4-.667z"/></symbol>
<symbol id="visa" viewBox="0 0 75 32"><path fill="#b1b1b1"  d="m29.778 16.016-3.755 9.407-.366-1.95c-.917-2.372-2.931-4.83-5.312-5.762l3.479 12.118h4.03l6.044-13.813h-4.121zm3.205 13.813 2.381-13.813h3.845l-2.381 13.813h-3.845zm22.893-4.915c.275-.763 1.557-3.899 1.557-3.899s.275-.763.549-1.355l.275 1.185.915 3.984h-3.296v.084zm4.671-8.898h-2.93c-.916 0-1.649.254-2.016 1.186l-5.677 12.627h4.03s.64-1.695.823-2.118h4.945c.092.508.459 2.034.459 2.034h3.571c-.092.084-3.205-13.729-3.205-13.729zm-9.798.339a10.272 10.272 0 0 0-3.476-.594h-.005c-3.755 0-6.501 1.865-6.501 4.576 0 1.95 1.923 3.136 3.388 3.73 1.466.677 2.016 1.101 2.016 1.694 0 .932-1.191 1.357-2.29 1.357-1.557 0-2.381-.171-3.571-.763l-.549-.171-.55 3.051c.916.425 2.564.678 4.304.764 4.03 0 6.686-1.865 6.686-4.747 0-1.61-1.008-2.796-3.205-3.728-1.374-.678-2.197-1.102-2.107-1.695 0-.593.733-1.186 2.197-1.186 1.008 0 2.016.17 2.839.508l.367.171c-.092 0 .458-2.966.458-2.966z"/><path fill="#b1b1b1"  d="M22.543 16.016h-6.227v.254c4.853 1.186 7.967 3.983 9.341 7.289l-1.374-6.357c-.275-.931-.916-1.185-1.74-1.185zM4.779 12.711H2.304L-.533.846 2.215.423 4.137 9.66 9.082.508h2.564L4.779 12.711zm65.934.255c-.916 1.611-1.741 2.033-3.023 2.033-.274 0-.458 0-.64-.084v-1.271c.182.085.458.085.823.085.459 0 .916-.255 1.19-.678l.183-.423-1.466-6.272 1.831-.254.825 4.576 2.289-4.405h1.741l-3.755 6.694zm-6.778-5.425c-.549 0-1.099.339-1.648.847l-.549 2.882c.366.085.549.17 1.099.17 1.099 0 1.831-.594 2.107-2.034.183-1.271-.275-1.865-1.007-1.865zm-1.281 5.169c-.916 0-1.831-.17-2.748-.423l1.466-8.98 1.739-.255-.64 3.899c.549-.423 1.19-.848 2.106-.848 1.466 0 2.473 1.018 2.107 3.136-.459 2.372-2.015 3.474-4.029 3.474zm-8.151-6.609c-.549-.254-.916-.338-1.74-.338-1.191 0-2.197.931-2.473 2.711-.275 1.611.366 2.372 1.373 2.372.825 0 1.557-.423 2.29-1.186l.549-3.559zm-.732 6.526v-1.186c-.733.677-1.74 1.355-3.022 1.355-1.923 0-3.205-1.269-2.748-4.151.549-3.136 2.656-4.576 4.763-4.576.823 0 1.557.17 2.014.338L55.419.34l2.382-.339-2.107 12.627h-1.923zM43.697 5.424c-.915 0-1.739.677-2.106 2.034h3.571c0-1.271-.459-2.034-1.466-2.034zm3.389 3.39h-5.861c-.182 1.611.641 2.372 2.015 2.372 1.19 0 2.197-.423 3.296-1.017v1.611c-1.099.593-2.38 1.017-3.845 1.017-2.564 0-4.213-1.356-3.755-4.407.459-2.711 2.473-4.405 4.853-4.405 2.748 0 3.663 1.948 3.205 4.32.183.171.092.425.092.51zM37.47 2.797c-.732 0-1.281-.509-1.19-1.186.092-.678.825-1.187 1.557-1.187s1.282.509 1.099 1.187c-.092.677-.733 1.186-1.466 1.186zm-2.839 9.83 1.374-8.475h2.288l-1.374 8.475H34.63zm0-10.762c-.733 0-1.282.339-1.374 1.102l-.182 1.271h1.739v1.693H32.8l-1.099 6.695h-2.197l1.099-6.695h-1.282l.274-1.694h1.282l.275-1.441C31.426.933 32.891.254 34.723.254c.366 0 .733 0 .915.085v1.695c-.366-.171-.64-.171-1.007-.171zm-7.142.932c-.733 0-1.282-.509-1.191-1.186.092-.678.825-1.187 1.557-1.187s1.282.509 1.099 1.187c0 .677-.733 1.186-1.465 1.186zm-2.748 9.83 1.374-8.475h2.289l-1.374 8.475h-2.289zm-3.479-4.831-.825 4.831h-2.289l1.374-8.475h1.922v1.695c.733-1.017 1.831-1.779 3.205-1.865V6.1c-1.282.085-2.564.763-3.388 1.696zm-7.235-2.372c-.915 0-1.739.677-2.106 2.034h3.571c.092-1.271-.366-2.034-1.465-2.034zm3.48 3.39h-5.861c-.182 1.611.641 2.372 2.015 2.372 1.19 0 2.197-.423 3.296-1.017v1.611c-1.099.593-2.289 1.017-3.845 1.017-2.564 0-4.213-1.356-3.755-4.407.459-2.711 2.473-4.405 4.853-4.405 2.748 0 3.663 1.948 3.205 4.32.092.171.092.425.092.51z"/></symbol>
<symbol id="watsapp-footer" viewBox="0 0 32 32"><path fill="#75b73b"  d="M16 32c8.837 0 16-7.163 16-16S24.837 0 16 0 0 7.163 0 16s7.163 16 16 16z"/><path fill="#fff"  d="M15.552 6.778c-4.877.232-8.725 4.294-8.71 9.176a9.077 9.077 0 0 0 1.021 4.182l-.024-.051-.972 4.72a.357.357 0 0 0 .434.418h-.002l4.624-1.096a8.983 8.983 0 0 0 3.929.955h.007c4.984.076 9.141-3.882 9.296-8.864a9.158 9.158 0 0 0-9.602-9.44zm5.518 14.218a7.104 7.104 0 0 1-5.051 2.1h-.021.001-.021a7.06 7.06 0 0 1-3.212-.767l.04.019-.643-.32-2.836.671.597-2.898-.317-.621a6.992 6.992 0 0 1-.78-3.233v-.024.001a7.12 7.12 0 0 1 2.101-5.07 7.16 7.16 0 0 1 5.07-2.1c1.915 0 3.716.746 5.07 2.1a7.104 7.104 0 0 1 2.1 5.051v.021-.001a7.185 7.185 0 0 1-2.1 5.071z"/><path fill="#fff"  d="m20.445 17.912-1.774-.51a.663.663 0 0 0-.655.172l-.434.442a.644.644 0 0 1-.706.147l.004.002c-.839-.339-2.605-1.91-3.055-2.694a.642.642 0 0 1 .052-.718l-.001.001.378-.49a.657.657 0 0 0 .08-.676l.002.004-.746-1.688a.663.663 0 0 0-1.032-.236l.001-.001c-.496.419-1.083 1.055-1.154 1.76-.126 1.243.407 2.81 2.422 4.691 2.328 2.174 4.194 2.461 5.408 2.166.688-.166 1.239-.835 1.586-1.383a.662.662 0 0 0-.369-.99l-.005-.001z"/></symbol>
<symbol id="watsapp" viewBox="0 0 32 32"><path fill="#75b73b"  d="M16 32c8.836 0 16-7.164 16-16S24.836 0 16 0 0 7.164 0 16s7.164 16 16 16z"/><path fill="#fff"  d="M15.552 6.778c-4.877.233-8.725 4.294-8.71 9.177a9.096 9.096 0 0 0 .997 4.13l-.973 4.72a.356.356 0 0 0 .431.419l4.625-1.097a8.983 8.983 0 0 0 3.929.956h.007c4.983.076 9.14-3.882 9.295-8.864a9.158 9.158 0 0 0-9.621-9.438l.022-.001zm5.519 14.218a7.105 7.105 0 0 1-5.052 2.1h-.02H16h-.021a7.065 7.065 0 0 1-3.211-.766l.04.019-.644-.321-2.835.672.597-2.898-.318-.621a6.992 6.992 0 0 1-.779-3.23v-.027.001c0-1.916.745-3.716 2.099-5.071a7.157 7.157 0 0 1 5.071-2.1c1.916 0 3.716.747 5.071 2.101a7.104 7.104 0 0 1 2.1 5.051v.02-.001a7.178 7.178 0 0 1-2.101 5.071z"/><path fill="#fff"  d="m20.445 17.911-1.774-.51a.663.663 0 0 0-.655.172l-.434.442a.64.64 0 0 1-.707.147l.004.002c-.839-.34-2.605-1.909-3.055-2.694a.642.642 0 0 1 .052-.718l-.001.001.379-.491a.654.654 0 0 0 .079-.675l.002.004-.747-1.687a.662.662 0 0 0-1.034-.236l.001-.001c-.495.419-1.083 1.055-1.154 1.76-.126 1.243.407 2.81 2.423 4.691 2.329 2.174 4.192 2.461 5.408 2.165.688-.165 1.237-.834 1.585-1.382a.66.66 0 0 0-.37-.99l-.005-.001z"/></symbol>
<symbol id="viber-footer" viewBox="0 0 32 32"><path fill="#6f3faa"  d="M16 32c8.837 0 16-7.163 16-16S24.837 0 16 0 0 7.163 0 16s7.163 16 16 16z"/><path fill="#fff"  d="m24.464 11.246-.005-.022c-.428-1.728-2.355-3.582-4.125-3.968l-.02-.005c-1.297-.261-2.788-.41-4.314-.41s-3.017.149-4.459.433l.145-.024-.021.004c-1.77.386-3.697 2.24-4.125 3.969l-.005.022c-.252 1.093-.396 2.348-.396 3.637s.144 2.544.418 3.75l-.022-.113.005.022c.41 1.654 2.194 3.424 3.898 3.91v1.929c0 .698.851 1.042 1.334.538l1.955-2.032a23.115 23.115 0 0 0 5.732-.396l-.146.024.019-.005c1.77-.386 3.698-2.24 4.126-3.968l.005-.022a16.9 16.9 0 0 0 0-7.274zm-1.546 6.924c-.286 1.128-1.749 2.529-2.912 2.788-1.522.29-3.056.414-4.589.371h-.005a.108.108 0 0 0-.077.032l-2.945 3.024a.178.178 0 0 1-.307-.123v-3.197a.11.11 0 0 0-.089-.108h-.001c-1.163-.259-2.626-1.661-2.912-2.788-.227-.988-.357-2.123-.357-3.288s.13-2.3.376-3.39l-.019.102c.286-1.128 1.749-2.53 2.912-2.788 1.204-.241 2.589-.379 4.006-.379s2.801.138 4.141.401l-.135-.022c1.163.258 2.626 1.661 2.912 2.788.227.988.357 2.123.357 3.288s-.13 2.3-.377 3.39l.019-.102z"/><path fill="#fff"  d="M18.53 19.646c-.179-.054-.35-.09-.507-.156-1.64-.68-3.149-1.558-4.344-2.903-.679-.765-1.211-1.628-1.661-2.542-.214-.433-.393-.883-.576-1.331-.167-.408.079-.83.338-1.137a2.69 2.69 0 0 1 .879-.665l.016-.007c.264-.127.525-.054.718.17a9.21 9.21 0 0 1 1.112 1.555c.19.346.138.768-.208 1.002-.084.058-.16.125-.239.189a.775.775 0 0 0-.178.188l-.002.003a.52.52 0 0 0-.034.461l-.001-.004c.427 1.173 1.146 2.085 2.326 2.576.189.078.378.17.596.144.365-.042.482-.442.738-.65.25-.204.568-.207.838-.037s.53.353.789.538c.254.182.507.358.742.565.226.199.304.46.176.729-.232.494-.57.905-1.058 1.167-.138.074-.302.098-.458.146.155-.048-.179-.054 0 0zm-2.525-9.307c2.144.06 3.905 1.483 4.282 3.603.064.361.088.73.116 1.097.012.154-.075.301-.242.303-.172.002-.25-.142-.261-.296-.022-.305-.037-.612-.079-.914-.222-1.598-1.496-2.918-3.086-3.202-.24-.042-.484-.054-.726-.08-.154-.016-.354-.024-.388-.215-.028-.16.106-.286.258-.295.042-.002.083 0 .124 0 2.145.06-.041 0 0 0z"/><path fill="#fff"  d="M19.264 14.563c-.004.027-.006.09-.022.15-.057.215-.384.242-.458.024a.616.616 0 0 1-.026-.182v-.026.001a2.6 2.6 0 0 0-.329-1.303 2.44 2.44 0 0 0-1.003-.948l-.014-.006a2.846 2.846 0 0 0-.794-.246l-.017-.002c-.122-.021-.246-.033-.369-.05-.149-.02-.229-.115-.222-.262a.23.23 0 0 1 .257-.228c.493.028.968.134 1.406.366.89.471 1.398 1.214 1.546 2.208.007.045.018.089.022.134.008.111.014.222.022.37-.003.027-.008-.147 0 0z"/><path fill="#fff"  d="M17.93 14.512c-.179.002-.275-.096-.294-.261-.013-.114-.024-.231-.05-.342a.97.97 0 0 0-.354-.557l-.002-.002a.92.92 0 0 0-.283-.138l-.007-.002c-.132-.038-.268-.027-.4-.059-.142-.035-.221-.151-.198-.285a.257.257 0 0 1 .273-.206h-.001c.831.06 1.426.49 1.51 1.468.006.07.013.142-.002.208-.026.114-.11.17-.192.176.082-.006-.179.002 0 0zm.6 5.134c-.179-.054.155-.048 0 0zm-2.52-9.307zm-.005 0h.006c.119.004 2.054.058-.006 0zm3.259 4.225c-.009-.147-.004.026 0 0z"/><path fill="#fff"  d="m17.93 14.512.008-.002-.031.001.023.002z"/><path fill="#fff"  d="m17.93 14.512-.023-.002.023.002h.001zm.008-.002-.008.002c.021-.002.019-.002.008-.002z"/></symbol>
<symbol id="viber" viewBox="0 0 32 32"><path fill="#6f3faa"  d="M16 32c8.836 0 16-7.164 16-16S24.836 0 16 0 0 7.164 0 16s7.164 16 16 16z"/><path fill="#fff"  d="m24.464 11.245-.005-.021c-.427-1.728-2.354-3.582-4.125-3.968l-.019-.004c-1.297-.261-2.789-.41-4.315-.41s-3.017.149-4.46.434l.145-.024-.019.004c-1.771.386-3.697 2.24-4.126 3.968l-.004.021c-.252 1.093-.396 2.348-.396 3.637s.144 2.544.418 3.75l-.022-.113.004.021c.411 1.654 2.194 3.424 3.898 3.91v1.931c0 .698.851 1.04 1.335.537l1.954-2.032a23.166 23.166 0 0 0 5.732-.397l-.146.024.021-.003c1.77-.386 3.696-2.24 4.124-3.968l.005-.021c.252-1.093.396-2.348.396-3.637s-.144-2.544-.418-3.75l.022.113zm-1.547 6.926c-.286 1.127-1.749 2.528-2.912 2.788a20.75 20.75 0 0 1-4.619.369l.03.001h-.003a.11.11 0 0 0-.078.033l-2.945 3.023a.178.178 0 0 1-.306-.123v-3.196a.11.11 0 0 0-.089-.108h-.001c-1.163-.259-2.626-1.661-2.912-2.788-.227-.988-.357-2.123-.357-3.288s.13-2.3.376-3.39l-.019.102c.286-1.127 1.749-2.528 2.912-2.787 1.204-.241 2.589-.379 4.005-.379s2.801.138 4.141.401l-.135-.022c1.164.258 2.626 1.66 2.912 2.788.227.988.357 2.123.357 3.287s-.13 2.299-.377 3.39l.019-.102z"/><path fill="#fff"  d="M18.529 19.646c-.178-.054-.349-.091-.507-.157-1.639-.681-3.149-1.557-4.343-2.902-.679-.765-1.212-1.629-1.661-2.543-.213-.433-.394-.883-.576-1.331-.167-.407.078-.829.337-1.137.243-.288.557-.509.895-.672.265-.127.525-.053.718.171.418.484.801.994 1.111 1.555.192.346.139.768-.207 1.003-.085.058-.161.125-.24.189a.79.79 0 0 0-.178.187l-.002.003a.519.519 0 0 0-.033.462l-.001-.003c.427 1.172 1.146 2.084 2.325 2.575.19.079.379.171.597.145.363-.043.482-.443.737-.651.25-.205.569-.207.837-.037.269.171.529.352.789.538.254.181.507.358.741.565.226.198.304.459.176.729-.233.494-.571.905-1.058 1.167-.139.075-.303.098-.459.146.156-.048-.178-.054 0 0zm-2.525-9.307c2.144.06 3.906 1.483 4.284 3.603.064.362.086.731.115 1.098.012.154-.075.3-.242.302-.171.002-.249-.142-.26-.295-.021-.305-.037-.611-.079-.914a3.841 3.841 0 0 0-3.062-3.199l-.024-.004c-.239-.043-.484-.053-.726-.079-.154-.016-.354-.026-.388-.215-.028-.16.107-.287.259-.295.041-.002.082 0 .124 0 2.144.06-.042 0 0 0z"/><path fill="#fff"  d="M19.264 14.563c-.004.028-.006.091-.021.149-.058.215-.384.242-.459.026a.62.62 0 0 1-.026-.182l.001-.027v.001a2.6 2.6 0 0 0-.329-1.302 2.43 2.43 0 0 0-1.018-.955 2.857 2.857 0 0 0-.794-.246l-.017-.002c-.122-.02-.245-.032-.368-.049-.149-.021-.228-.116-.222-.262a.23.23 0 0 1 .258-.228h-.001c.516.02.996.153 1.424.375l-.019-.009c.89.471 1.397 1.216 1.547 2.208.006.046.017.09.021.135l.021.369c-.003.027-.009-.147 0 0z"/><path fill="#fff"  d="M17.93 14.512c-.179.003-.275-.096-.294-.261-.013-.114-.022-.23-.05-.341a.964.964 0 0 0-.353-.557l-.002-.002a.924.924 0 0 0-.284-.137l-.007-.002c-.131-.039-.269-.029-.399-.061-.143-.035-.222-.149-.199-.284a.258.258 0 0 1 .273-.207h-.001c.832.06 1.425.49 1.51 1.468.005.069.013.143-.002.209-.027.112-.111.17-.192.175.081-.005-.179.003 0 0zm.599 5.134c-.178-.054.156-.048 0 0zm-2.518-9.307h-.001zm-.007 0h.005c.119.004 2.055.058-.005 0zm3.26 4.224c-.01-.147-.004.027 0 0z"/><path fill="#fff"  d="m17.931 14.512.007-.002h-.033.001l.023.002z"/><path fill="#fff"  d="m17.93 14.512-.023-.002a.152.152 0 0 0 .023.002h.001zm.008-.002-.009.002c.021-.002.019-.002.009-.002z"/></symbol>
<symbol id="address-footer" viewBox="0 0 32 32"><path fill="none" opacity=".2" stroke="#b1b1b1"  stroke-width="1.28" d="M31.36 16c0 8.483-6.877 15.36-15.36 15.36S.64 24.483.64 16 7.517.64 16 .64 31.36 7.517 31.36 16z"/><path fill="#b1b1b1"  d="M15.872 8.96a5.633 5.633 0 0 0-5.632 5.632c0 3.802 4.963 8.096 5.174 8.279a.702.702 0 0 0 .917-.001l-.001.001c.246-.183 5.174-4.477 5.174-8.279a5.633 5.633 0 0 0-5.632-5.632zm0 12.426c-1.5-1.408-4.224-4.442-4.224-6.794a4.224 4.224 0 1 1 8.448 0c0 2.351-2.724 5.393-4.224 6.794zm0-9.61h-.042a2.816 2.816 0 0 0 0 5.632h.045-.002a2.817 2.817 0 0 0 .003-5.632h-.002zm0 4.224a1.408 1.408 0 0 1 0-2.816 1.408 1.408 0 0 1 0 2.816z"/>
</symbol></defs></svg>