<svg width="25" height="24" viewBox="0 0 25 24" fill="none" xmlns="http://www.w3.org/2000/svg">
<path d="M22.21 4.72006L19.78 2.29006C19.5927 2.10381 19.3392 1.99927 19.075 1.99927C18.8108 1.99927 18.5574 2.10381 18.37 2.29006L12.79 7.87006C12.6973 7.9635 12.624 8.07432 12.5742 8.19615C12.5245 8.31799 12.4993 8.44845 12.5 8.58006V11.0001C12.5 11.2653 12.6054 11.5196 12.7929 11.7072C12.9804 11.8947 13.2348 12.0001 13.5 12.0001H15.92C16.0516 12.0008 16.1821 11.9756 16.3039 11.9258C16.4258 11.8761 16.5366 11.8027 16.63 11.7101L22.21 6.13006C22.3963 5.9427 22.5008 5.68925 22.5008 5.42506C22.5008 5.16087 22.3963 4.90742 22.21 4.72006ZM15.5 10.0001H14.5V9.00006L19.08 4.42006L20.08 5.42006L15.5 10.0001ZM19.5 12.0001C19.2348 12.0001 18.9804 12.1054 18.7929 12.293C18.6054 12.4805 18.5 12.7348 18.5 13.0001C18.5 14.8566 17.7625 16.6371 16.4498 17.9498C15.137 19.2626 13.3565 20.0001 11.5 20.0001H5.91002L6.55002 19.3701C6.64375 19.2771 6.71814 19.1665 6.76891 19.0446C6.81968 18.9228 6.84582 18.7921 6.84582 18.6601C6.84582 18.528 6.81968 18.3973 6.76891 18.2755C6.71814 18.1536 6.64375 18.043 6.55002 17.9501C5.57095 16.9711 4.90418 15.7238 4.63404 14.3658C4.3639 13.0079 4.50253 11.6004 5.03238 10.3212C5.56224 9.04206 6.45952 7.94878 7.61076 7.17961C8.762 6.41045 10.1155 5.99996 11.5 6.00006C11.7652 6.00006 12.0196 5.8947 12.2071 5.70717C12.3947 5.51963 12.5 5.26528 12.5 5.00006C12.5 4.73484 12.3947 4.48049 12.2071 4.29295C12.0196 4.10542 11.7652 4.00006 11.5 4.00006C9.80748 4.00562 8.15082 4.48834 6.7202 5.3928C5.28959 6.29726 4.14301 7.58679 3.41209 9.11338C2.68116 10.64 2.39553 12.3417 2.58796 14.0233C2.7804 15.7048 3.44311 17.2981 4.50002 18.6201L2.79002 20.2901C2.65126 20.4307 2.55726 20.6093 2.51989 20.8032C2.48252 20.9972 2.50344 21.1979 2.58002 21.3801C2.65504 21.5627 2.78244 21.719 2.94616 21.8293C3.10988 21.9397 3.30259 21.9991 3.50002 22.0001H11.5C12.6819 22.0001 13.8522 21.7673 14.9442 21.315C16.0361 20.8627 17.0282 20.1997 17.864 19.364C18.6997 18.5283 19.3626 17.5361 19.8149 16.4442C20.2672 15.3523 20.5 14.182 20.5 13.0001C20.5 12.7348 20.3947 12.4805 20.2071 12.293C20.0196 12.1054 19.7652 12.0001 19.5 12.0001Z" fill="white"/>
</svg>
